<svg width="300" height="300" viewBox="0 0 300 300" fill="none" xmlns="http://www.w3.org/2000/svg">
<g clip-path="url(#clip0_124_5)">
<rect width="300" height="300" fill="white"/>
<rect x="-7.35083" y="-14.7018" width="314.702" height="314.702" fill="#3C3C3C"/>
<path d="M151.466 255.07C138.961 255.07 127.53 253.312 117.175 249.795C107.015 246.082 97.929 240.807 89.9181 233.968C82.1025 227.13 75.557 218.826 70.2815 209.056L110.141 182.972C115.221 190.201 121.766 196.063 129.777 200.557C137.984 204.855 146.288 207.005 154.689 207.005C161.137 207.005 165.924 205.735 169.05 203.195C172.372 200.655 174.033 197.528 174.033 193.816C174.033 191.276 173.251 189.029 171.688 187.075C170.321 185.121 167.487 183.265 163.189 181.506C158.89 179.553 152.638 177.696 144.432 175.938C127.237 172.03 113.56 167.145 103.4 161.284C93.2397 155.227 86.0103 147.997 81.7117 139.596C77.4132 130.998 75.2639 121.229 75.2639 110.287C75.2639 98.1731 78.3901 87.2314 84.6426 77.4619C90.895 67.4971 99.7852 59.5838 111.313 53.7222C123.036 47.8605 136.909 44.9297 152.931 44.9297C170.907 44.9297 186.245 48.5444 198.945 55.7738C211.645 62.8078 221.415 71.8933 228.253 83.0305L188.394 111.753C183.9 105.696 177.843 101.397 170.223 98.857C162.798 96.1215 155.666 94.7538 148.828 94.7538C142.771 94.7538 137.886 95.9262 134.174 98.2708C130.657 100.42 128.898 103.449 128.898 107.356C128.898 111.264 130.852 114.39 134.76 116.735C138.863 119.08 146.874 121.62 158.793 124.355C175.205 128.068 188.589 132.855 198.945 138.716C209.496 144.383 217.214 151.514 222.099 160.111C227.179 168.513 229.719 178.869 229.719 191.178C229.719 203.488 226.592 214.527 220.34 224.297C214.088 233.871 205.1 241.393 193.376 246.864C181.653 252.335 167.683 255.07 151.466 255.07Z" fill="white"/>
</g>
<defs>
<clipPath id="clip0_124_5">
<rect width="300" height="300" fill="white"/>
</clipPath>
</defs>
</svg>
